# xmcd
#
# Track frame offsets: 
#        150
#        18903
#        43358
#        63265
#        82487
#        105130
#        128309
#        155637
#        179000
#        207000
#        231153
#        250497
#
# Disc length: 3583 seconds
#
# Revision: 0
# Processed by: cddbd v1.5.2PL0 Copyright (c) Steve Scherf et al.
# Submitted via: ExactAudioCopy v0.95b4
#
DISCID=9f0dfd0c
DTITLE=Various Artist - Don´s Black 6
DYEAR=1900
DGENRE=
TTITLE0=Next - Too close
TTITLE1=Five - Got the feeling
TTITLE2=Alex Prince - How we livin´
TTITLE3=Spice Girls - Viva forever
TTITLE4=BVSMP - Megamix
TTITLE5=BVSMP - I need you
TTITLE6=Lamar - Too many nights
TTITLE7=4the cause - Ain´t no sunshine
TTITLE8=C-Block - So strong out
TTITLE9=R. Kelly - I believe I can fly
TTITLE10=Space Jam Allstars - Hit ´em high
TTITLE11=Coolio - Ganstas Paradise
EXTD=
EXTT0=
EXTT1=
EXTT2=
EXTT3=
EXTT4=
EXTT5=
EXTT6=
EXTT7=
EXTT8=
EXTT9=
EXTT10=
EXTT11=
PLAYORDER=
